<svg version="1.1" xmlns="http://www.w3.org/2000/svg" xmlns:xlink="http://www.w3.org/1999/xlink" width="204.70497" height="50.00208" viewBox="0,0,204.70497,50.00208"><g transform="translate(-138.44022,-154.51717)"><g stroke="#000000" stroke-miterlimit="10"><path d="M154.99555,192.47696h-12.18064c-1.14356,0 -1.7901,-1.31809 -1.08989,-2.22231c2.99467,-3.86784 2.90163,-9.20149 -0.00066,-12.93508c-1.82139,-2.35284 -2.78414,-5.17273 -2.78414,-8.15485c0,-6.00313 3.79635,-8.6901 7.55868,-8.6901c4.41671,0 7.68764,3.7686 7.40329,7.96281c-0.17132,2.52704 0.54953,5.0668 2.18383,7.1945c3.71725,4.80178 3.71692,11.50892 -0.00066,16.31028c-0.26098,0.33743 -0.66338,0.53475 -1.08981,0.53475z" fill="#b9f291" stroke-width="1"/><g fill="#84d993" stroke-width="1"><path d="M148.06137,192.18849c-0.60187,-0.46598 -0.71209,-1.3318 -0.24603,-1.93384c2.94472,-3.80328 2.95249,-9.13007 -0.00058,-12.935c-1.82147,-2.35284 -2.78423,-5.17265 -2.78423,-8.15485c0,-0.76122 0.61715,-1.37845 1.37845,-1.37845c0.7613,0 1.37845,0.61715 1.37845,1.37845c0,2.29009 0.71919,4.5484 2.20844,6.46721c3.71725,4.80186 3.71701,11.509 -0.00066,16.31045c-0.46614,0.60196 -1.33196,0.71209 -1.93384,0.24603z"/><path d="M173.74751,192.47696h-12.18072c-1.14364,0 -1.79002,-1.31809 -1.0899,-2.22239c2.90765,-3.75539 2.99021,-9.05799 -0.00066,-12.93508c-1.82139,-2.35284 -2.78414,-5.17265 -2.78414,-8.15469c0,-6.00313 3.79635,-8.6901 7.55868,-8.6901c4.41737,0 7.68764,3.76943 7.40329,7.96281c-0.18106,2.66954 0.64885,5.2188 2.18392,7.19441c3.71725,4.80186 3.71692,11.50892 -0.00066,16.31037c-0.26106,0.33735 -0.66346,0.53467 -1.08981,0.53467z"/></g><path d="M166.81325,192.18849c-0.60187,-0.46598 -0.71209,-1.3318 -0.24603,-1.93384c2.94976,-3.80964 2.94737,-9.13659 -0.00066,-12.935c-1.82147,-2.35284 -2.78422,-5.17273 -2.78422,-8.15485c0,-0.76122 0.61715,-1.37845 1.37845,-1.37845c0.76122,0 1.37845,0.61715 1.37845,1.37845c0,2.29026 0.71919,4.54832 2.20844,6.46721c3.71725,4.80195 3.71709,11.509 -0.00066,16.31045c-0.46589,0.60171 -1.33147,0.71234 -1.93376,0.24603z" fill="#50bf94" stroke-width="1"/><text transform="translate(184.88665,192.01873) scale(1.04171,1.04171)" font-size="40" xml:space="preserve" fill="#84d993" stroke-width="2" font-family="Archivo Black" font-weight="normal" text-anchor="start"><tspan x="0" dy="0">ALGAE</tspan></text></g></g></svg>