<svg version="1.1" xmlns="http://www.w3.org/2000/svg" xmlns:xlink="http://www.w3.org/1999/xlink" width="345.55" height="227.25" viewBox="0,0,345.55,227.25"><g transform="translate(36.55,-21.75)"><g stroke-miterlimit="10"><path d="M173.5,180c0,-36.72694 29.77306,-66.5 66.5,-66.5c36.72694,0 66.5,29.77306 66.5,66.5c0,36.72694 -29.77306,66.5 -66.5,66.5c-36.72694,0 -66.5,-29.77306 -66.5,-66.5z" fill="#cccccc" stroke="#000000" stroke-width="5"/><path d="M188,180c0,-28.71881 23.28119,-52 52,-52c28.71881,0 52,23.28119 52,52c0,28.71881 -23.28119,52 -52,52c-28.71881,0 -52,-23.28119 -52,-52z" fill="#ff0000" stroke="#000000" stroke-width="2.5"/><text transform="translate(-34.5,39.5) scale(0.5,0.5)" font-size="40" xml:space="preserve" fill="#ffffff" stroke="none" stroke-width="1" font-family="Archivo Black" font-weight="normal" text-anchor="middle"><tspan x="0" dy="0"> </tspan></text><text transform="translate(240,171.31882) scale(0.25081,0.25081)" font-size="40" xml:space="preserve" fill="#ffffff" stroke="none" stroke-width="1" font-family="Archivo Black" font-weight="normal" text-anchor="middle"><tspan x="0" dy="0">PRESS BUTTON if </tspan><tspan x="0" dy="46.15px">server is down</tspan><tspan x="0" dy="46.15px">for too long!</tspan></text></g></g></svg>