<svg version="1.1" xmlns="http://www.w3.org/2000/svg" xmlns:xlink="http://www.w3.org/1999/xlink" width="138" height="138" viewBox="0,0,138,138"><g transform="translate(-171,-111)"><g stroke-miterlimit="10"><path d="M173.5,180c0,-36.72694 29.77306,-66.5 66.5,-66.5c36.72694,0 66.5,29.77306 66.5,66.5c0,36.72694 -29.77306,66.5 -66.5,66.5c-36.72694,0 -66.5,-29.77306 -66.5,-66.5z" fill="#cccccc" stroke="#000000" stroke-width="5"/><path d="M188,180c0,-28.71881 23.28119,-52 52,-52c28.71881,0 52,23.28119 52,52c0,28.71881 -23.28119,52 -52,52c-28.71881,0 -52,-23.28119 -52,-52z" fill="#6dff5c" stroke="#000000" stroke-width="2.5"/><text transform="translate(240,168.09717) scale(0.33063,0.33063)" font-size="40" xml:space="preserve" fill="#000000" stroke="none" stroke-width="1" font-family="Archivo Black" font-weight="normal" text-anchor="middle"><tspan x="0" dy="0">Server is </tspan><tspan x="0" dy="48px">definitely</tspan><tspan x="0" dy="48px">OK!</tspan></text></g></g></svg>